{"title":"District 9 1080p BluRay Full HD Dual Audio By Ashish7(wall.e)","uid":7481881,"size":4604964195,"categoryP":"video","categoryS":"hd___movies","magnet":"?xt=urn:btih:edb44e645179541080752c8cce7edf4c8146bbcb&amp;dn=District+9+1080p+BluRay+Full+HD+Dual+Audio+By+Ashish7%28wall.e%29&amp;tr=udp%3A%2F%2Ftracker.openbittorrent.com%3A80&amp;tr=udp%3A%2F%2Fopen.demonii.com%3A1337&amp;tr=udp%3A%2F%2Ftracker.coppersurfer.tk%3A6969&amp;tr=udp%3A%2F%2Fexodus.desync.com%3A6969","seeders":0,"leechers":1,"uploader":"wall.e","files":11,"time":1343459699,"description":"Format                           : Matroska\nFile size                        : 4.25 GiB\nDuration                         : 1h 52mn\nOverall bit rate                 : 5426 Kbps\n\nVideo\nID                               : 1\nFormat                           : AVC\nFormat/Info                      : Advanced Video Codec\nBit rate                         : 4141 Kbps\nMaximum bit rate                 : 25.0 Mbps\nWidth                            : 1920 pixels\nHeight                           : 1080 pixels\nDisplay aspect ratio             : 16:9\nFrame rate                       : 23.976 fps\nColor space                      : YUV\nChroma subsampling               : 4:2:0\nStream size                      : 3.17 GiB (74%)\nTitle                            : 1080p BluRay Full HD ~ Ashish7(wall.e)\n\nAudio #1\nID                               : 2\nFormat                           : AC-3\nFormat/Info                      : Audio Coding 3\nBit rate mode                    : Constant\nBit rate                         : 640 Kbps\nChannel(s)                       : 6 channels\nChannel positions                : Front: L C R, Side: L R, LFE\nSampling rate                    : 48.0 KHz\nBit depth                        : 16 bits\nStream size                      : 514 MiB (12%)\nTitle                            : 5.1 Hindi Audio ~ Ashish7(wall.e)\n\nAudio #2\nID                               : 3\nFormat                           : AC-3\nFormat/Info                      : Audio Coding 3\nBit rate                         : 640 Kbps\nChannel(s)                       : 6 channels\nChannel positions                : Front: L C R, Side: L R, LFE\nSampling rate                    : 48.0 KHz\nStream size                      : 514 MiB (12%)\nTitle                            : 5.1 English Audio ~ Ashish7(wall.e)\n\nText\nID                               : 4\nFormat                           : PGS\nMuxing mode                      : zlib\nCodec ID                         : S_HDMV/PGS\nCodec ID/Info                    : The same subtitle format used on BDs/HD-DVDs\nTitle                            : English Subtitles ~ Ashish7(wall.e)","torrent":{"xt":"urn:btih:edb44e645179541080752c8cce7edf4c8146bbcb","amp;dn":"District+9+1080p+BluRay+Full+HD+Dual+Audio+By+Ashish7%28wall.e%29","amp;tr":["udp%3A%2F%2Ftracker.openbittorrent.com%3A80","udp%3A%2F%2Fopen.demonii.com%3A1337","udp%3A%2F%2Ftracker.coppersurfer.tk%3A6969","udp%3A%2F%2Fexodus.desync.com%3A6969"],"infoHash":"edb44e645179541080752c8cce7edf4c8146bbcb","infoHashBuffer":{"type":"Buffer","data":[237,180,78,100,81,121,84,16,128,117,44,140,206,126,223,76,129,70,187,203]},"announce":[],"urlList":[]}}